# xmcd
#
# Track frame offsets:
#	150
#	12192
#	23000
#	35870
#	49211
#	60156
#	73733
#	85452
#	98107
#	111682
#	124565
#	135589
#	148487
#	160893
#	172859
#	184738
#	194731
#	206389
#	216661
#	227802
#	238037
#
# Disc length: 3332 seconds
# Revision: 1
# Processed by: cddbd v1.5.2PL0 Copyright (c) Steve Scherf et al.
# Submitted via: dBpowerAMP V12.0
#
DISCID=3c0d0215
DTITLE=Robert Johnson - Up Jumped The Devil
DYEAR=1937
DGENRE=Blues
TTITLE0=Crossroad Blues
TTITLE1=From Four Till Late
TTITLE2=Kindhearted Woman Blues
TTITLE3=I Believe I'll Dust My Broom
TTITLE4=Love in Vain
TTITLE5=Sweet Home Chigago
TTITLE6=Me and the Devil Blues
TTITLE7=Come on in My Kitchen
TTITLE8=Terraplane Blues
TTITLE9=Ramblin' On My Mind
TTITLE10=Drunken Hearted Man
TTITLE11=Preachin' Blues (Up Jumped the Devil)
TTITLE12=Traveling Riverside Blues
TTITLE13=Phonograph Blues
TTITLE14=When You Got a Good Friend
TTITLE15=Little Queen of Spades
TTITLE16=If I Had Possession Over Judgement Day
TTITLE17=Stop Breakin Down Blues
TTITLE18=Stones in My Passway
TTITLE19=Milkcow's Calf Blues
TTITLE20=Last Fair Deal Gone Down
EXTD=
EXTT0=
EXTT1=
EXTT2=
EXTT3=
EXTT4=
EXTT5=
EXTT6=
EXTT7=
EXTT8=
EXTT9=
EXTT10=
EXTT11=
EXTT12=
EXTT13=
EXTT14=
EXTT15=
EXTT16=
EXTT17=
EXTT18=
EXTT19=
EXTT20=
PLAYORDER=
